<svg width="29" height="29" viewBox="0 0 29 29" fill="none" xmlns="http://www.w3.org/2000/svg">
<g id="icon / bootstrap / filled / key-fill">
<path id="Vector" d="M6.34342 20.8438C5.20821 20.8435 4.09386 20.5387 3.11662 19.961C2.13938 19.3833 1.33505 18.554 0.787544 17.5596C0.240039 16.5651 -0.0305844 15.442 0.00390577 14.3073C0.0383959 13.1726 0.376736 12.0679 0.98363 11.1086C1.59052 10.1492 2.44374 9.37027 3.45426 8.85302C4.46478 8.33578 5.59559 8.09917 6.72872 8.16788C7.86185 8.2366 8.95578 8.60812 9.89639 9.24369C10.837 9.87925 11.5898 10.7556 12.0764 11.7813H25.3747L28.0934 14.5L25.3747 17.2188L23.5622 15.4063L21.7497 17.2188L19.9372 15.4063L18.1247 17.2188L16.3122 15.4063L14.4997 17.2188H12.0764C11.5618 18.3036 10.7499 19.2201 9.73505 19.8618C8.72022 20.5035 7.54411 20.844 6.34342 20.8438ZM4.53092 16.3125C5.01162 16.3125 5.47264 16.1215 5.81255 15.7816C6.15246 15.4417 6.34342 14.9807 6.34342 14.5C6.34342 14.0193 6.15246 13.5583 5.81255 13.2184C5.47264 12.8785 5.01162 12.6875 4.53092 12.6875C4.05021 12.6875 3.5892 12.8785 3.24929 13.2184C2.90938 13.5583 2.71842 14.0193 2.71842 14.5C2.71842 14.9807 2.90938 15.4417 3.24929 15.7816C3.5892 16.1215 4.05021 16.3125 4.53092 16.3125Z" fill="#010B38"/>
</g>
</svg>
