<svg width="29" height="29" viewBox="0 0 29 29" fill="none" xmlns="http://www.w3.org/2000/svg">
<g id="icon / ionicons / filled / person">
<path id="Vector" d="M18.841 3.65785C17.7388 2.46783 16.1993 1.8125 14.5001 1.8125C12.7918 1.8125 11.2472 2.46387 10.1501 3.64652C9.04103 4.84221 8.50068 6.46723 8.62755 8.22195C8.87904 11.6838 11.5134 14.5 14.5001 14.5C17.4867 14.5 20.1165 11.6844 20.372 8.22309C20.5006 6.48422 19.9568 4.8626 18.841 3.65785Z" fill="#010B38"/>
<path id="Vector_2" d="M24.4691 27.1875H4.53157C4.27061 27.1909 4.01217 27.1361 3.77506 27.027C3.53795 26.918 3.32813 26.7574 3.16087 26.5571C2.79271 26.117 2.64431 25.516 2.75419 24.9083C3.23224 22.2564 4.72415 20.0287 7.06907 18.4648C9.15232 17.0766 11.7912 16.3125 14.5003 16.3125C17.2094 16.3125 19.8483 17.0771 21.9316 18.4648C24.2765 20.0281 25.7684 22.2558 26.2465 24.9077C26.3563 25.5155 26.2079 26.1164 25.8398 26.5565C25.6726 26.757 25.4628 26.9176 25.2257 27.0268C24.9885 27.1359 24.7301 27.1908 24.4691 27.1875Z" fill="#010B38"/>
</g>
</svg>
